<svg xmlns="http://www.w3.org/2000/svg" class="nav__logo" viewBox="0 0 84 21" preserveAspectRatio="xMinYMin meet" focusable="false" version="1.1">
  <g class="inbug" fill="none" fill-rule="evenodd" stroke="none" stroke-width="1">
    <path class="bug-text-color" transform="translate(63)" d="M 19.479 0 L 1.583 0 C 0.727 0 0 0.677 0 1.511 L 0 19.488 C 0 20.323 0.477 21 1.333 21 L 19.229 21 C 20.086 21 21 20.323 21 19.488 L 21 1.511 C 21 0.677 20.336 0 19.479 0" />
    <path class="background" fill="#0073b0" d="M 82.479 0 L 64.583 0 C 63.727 0 63 0.677 63 1.511 L 63 19.488 C 63 20.323 63.477 21 64.333 21 L 82.229 21 C 83.086 21 84 20.323 84 19.488 L 84 1.511 C 84 0.677 83.336 0 82.479 0 Z M 71 8 L 73.827 8 L 73.827 9.441 L 73.858 9.441 C 74.289 8.664 75.562 7.875 77.136 7.875 C 80.157 7.875 81 9.479 81 12.45 L 81 18 L 78 18 L 78 12.997 C 78 11.667 77.469 10.5 76.227 10.5 C 74.719 10.5 74 11.521 74 13.197 L 74 18 L 71 18 L 71 8 Z M 66 18 L 69 18 L 69 8 L 66 8 L 66 18 Z M 69.375 4.5 C 69.375 5.536 68.536 6.375 67.5 6.375 C 66.464 6.375 65.625 5.536 65.625 4.5 C 65.625 3.464 66.464 2.625 67.5 2.625 C 68.536 2.625 69.375 3.464 69.375 4.5 Z" />
  </g>
  <g class="linkedin-text">
    <path fill="#0073b1" d="M 60 18 L 57.2 18 L 57.2 16.809 L 57.17 16.809 C 56.547 17.531 55.465 18.125 53.631 18.125 C 51.131 18.125 48.978 16.244 48.978 13.011 C 48.978 9.931 51.1 7.875 53.725 7.875 C 55.35 7.875 56.359 8.453 56.97 9.191 L 57 9.191 L 57 3 L 60 3 L 60 18 Z M 54.479 10.125 C 52.764 10.125 51.8 11.348 51.8 12.974 C 51.8 14.601 52.764 15.875 54.479 15.875 C 56.196 15.875 57.2 14.634 57.2 12.974 C 57.2 11.268 56.196 10.125 54.479 10.125 L 54.479 10.125 Z" />
    <path fill="#0073b1" d="M 47.6611 16.3889 C 46.9531 17.3059 45.4951 18.1249 43.1411 18.1249 C 40.0001 18.1249 38.0001 16.0459 38.0001 12.7779 C 38.0001 9.8749 39.8121 7.8749 43.2291 7.8749 C 46.1801 7.8749 48.0001 9.8129 48.0001 13.2219 C 48.0001 13.5629 47.9451 13.8999 47.9451 13.8999 L 40.8311 13.8999 L 40.8481 14.2089 C 41.0451 15.0709 41.6961 16.1249 43.1901 16.1249 C 44.4941 16.1249 45.3881 15.4239 45.7921 14.8749 L 47.6611 16.3889 Z M 45.1131 11.9999 C 45.1331 10.9449 44.3591 9.8749 43.1391 9.8749 C 41.6871 9.8749 40.9121 11.0089 40.8311 11.9999 L 45.1131 11.9999 Z" />
    <polygon fill="#0073b1" points="38,8 34.5,8 31,12 31,3 28,3 28,18 31,18 31,13 34.699,18 38.241,18 34,12.533" />
    <path fill="#0073b1" d="M 16 8 L 18.827 8 L 18.827 9.441 L 18.858 9.441 C 19.289 8.664 20.562 7.875 22.136 7.875 C 25.157 7.875 26 9.792 26 12.45 L 26 18 L 23 18 L 23 12.997 C 23 11.525 22.469 10.5 21.227 10.5 C 19.719 10.5 19 11.694 19 13.197 L 19 18 L 16 18 L 16 8 Z" />
    <path fill="#0073b1" d="M 11 18 L 14 18 L 14 8 L 11 8 L 11 18 Z M 12.501 6.3 C 13.495 6.3 14.3 5.494 14.3 4.5 C 14.3 3.506 13.495 2.7 12.501 2.7 C 11.508 2.7 10.7 3.506 10.7 4.5 C 10.7 5.494 11.508 6.3 12.501 6.3 Z" />
    <polygon fill="#0073b1" points="3,3 0,3 0,18 9,18 9,15 3,15" />
  </g>
</svg>